# xmcd CD database file
#
# Track frame offsets:
#	150
#	17235
#	35362
#	49648
#	71380
#	83915
#	98060
#	113266
#	125783
#	142804
#	161423
#	171799
#	184096
#	197776
#	208221
#
# Disc length: 2999 seconds
#
# Revision: 4
# Processed by: cddbd v1.5.2PL0 Copyright (c) Steve Scherf et al.
# Submitted via: CDex 1.51
#
DISCID=c50bb50f
DTITLE=Various Artist - Jazz ~ Le coffret idéal  [CD 1-4] ~ Jazz Vocal
DYEAR=2010
DGENRE=Jazz
TTITLE0=Ella Fitzgerald - Mas Que Nada
TTITLE1=Ann Richard - Bewitched
TTITLE2=Madeleine Peyroux - (Getting Some)  Fun Out Of Life
TTITLE3=Mel Torme - Lullaby Of Birdland
TTITLE4=Ray Charles - When Your LoverHas Gone
TTITLE5=Chris Connor and Maynard Ferguson - Summertime
TTITLE6=Rosemary Clooney - Yours Sincerely
TTITLE7=Ester Phillips - Fever
TTITLE8=Jimmy Scoot - Our Day Will Come
TTITLE9=Lea Delaria - All That Jazz
TTITLE10=Bobby Scott - Babt Won't You Please Come Home
TTITLE11=Carmen McRae - For Once In My Life
TTITLE12=Chiles and Pettiford - The Joker
TTITLE13=Dee Dee Bridgewater - Melody Maker
TTITLE14=Lurlean Hunter - Blue and Sentimental
EXTD=YEAR: 2010
EXTT0=
EXTT1=
EXTT2=
EXTT3=
EXTT4=
EXTT5=
EXTT6=
EXTT7=
EXTT8=
EXTT9=
EXTT10=
EXTT11=
EXTT12=
EXTT13=
EXTT14=
PLAYORDER=
